<svg width="115" height="150" viewBox="0 0 115 150" fill="none" xmlns="http://www.w3.org/2000/svg">
<path d="M57.4296 150L10.4658 137.952L0 29.479H115L104.523 137.936L57.4296 150Z" fill="black"/>
<path d="M95.5538 131.03L104.506 38.3487H57.4997V140.778L95.5538 131.03Z" fill="black"/>
<path d="M57.4998 113.131L57.4367 113.146L41.4032 109.146L40.3781 98.5353H25.926L27.9428 119.424L57.4336 126.99L57.4998 126.973V113.131ZM21.3997 51.6524L22.7084 64.9559H57.4998V51.6524H21.3997ZM23.9925 78.5791L25.2827 91.8831H57.4998V78.5791H23.9925Z" fill="#EDEDED"/>
<path d="M68.9133 0.000146866H86.3505V5.85935H76.2058V7.03174H86.3505V20.5078H68.9133V14.3551H79.0588V13.1836H68.9139V0.000146866H68.9133ZM47.9889 0.000146866H65.4256V5.85935H55.2809V7.03174H65.4256V20.5078H47.9894V14.3551H58.1344V13.1836H47.9885V0.000146866H47.9889ZM27.0648 0.000146866H44.5012V6.73818H34.3567V13.4771H44.5021V20.2152H27.0648V0.000146866Z" fill="#100F0D"/>
<path d="M90.9153 78.5796L93.514 51.6529H57.4503V64.9564H77.7367L76.4269 78.5796H57.4503V91.8836H75.1785L73.5064 109.138L57.4498 113.142V126.983L86.9638 119.425L87.1799 117.177L90.564 82.1521L90.9153 78.5796Z" fill="white"/>
</svg>
