<svg width="115" height="150" viewBox="0 0 115 150" fill="none" xmlns="http://www.w3.org/2000/svg">
<path d="M10.4655 137.952L0 29.4784H115L104.523 137.935L57.4294 150L10.4655 137.952Z" fill="black"/>
<path d="M57.5 140.778L95.5539 131.029L104.507 38.3477H57.5V140.778Z" fill="black"/>
<path d="M57.5 78.5794H38.4493L37.1335 64.9558H57.5V51.6519H57.4502H21.3995L21.7442 55.221L25.2827 91.8828H57.5V78.5794Z" fill="#EDEDED"/>
<path d="M57.5 113.13L57.4368 113.146L41.4032 109.145L40.3778 98.5347H32.5868H25.9257L27.9428 119.424L57.4336 126.989L57.5 126.972V113.13Z" fill="#EDEDED"/>
<path d="M10.6995 6.12402e-05H18.0159V6.67972H24.7084V6.12402e-05H32.0251V20.2278H24.7087V13.4545H18.0162V20.2278H10.7V6.12402e-05H10.6995Z" fill="#100F0D"/>
<path d="M41.6462 6.70792H35.2053V6.12402e-05H55.4068V6.70792H48.9629V20.2278H41.6467V6.70792H41.6462Z" fill="#100F0D"/>
<path d="M58.613 6.12402e-05H66.2419L70.9347 7.10742L75.6227 6.12402e-05H83.2545V20.2278H75.9683V10.2018L70.9347 17.394H70.8089L65.7719 10.2018V20.2278H58.613V6.12402e-05Z" fill="#100F0D"/>
<path d="M86.8956 6.12402e-05H94.2142V13.5417H104.503V20.2278H86.8956V6.12402e-05Z" fill="#100F0D"/>
<path d="M57.4501 78.5794V91.8828H75.1781L73.5071 109.137L57.4501 113.142V126.983L86.9643 119.424L87.1807 117.176L90.564 82.1517L90.9152 78.5794H87.0356H57.4501Z" fill="white"/>
<path d="M57.4501 51.652V64.9559H92.179H92.2251L92.514 61.9655L93.1699 55.2211L93.5142 51.652H57.4501" fill="white"/>
</svg>
