<svg width="50" height="50" viewBox="0 0 50 50" fill="none" xmlns="http://www.w3.org/2000/svg">
<path d="M-1.50258e-06 15.625L-6.8299e-07 34.375C-3.05843e-07 43.0031 6.99687 50 15.625 50L34.375 50C43.0031 50 50 43.0031 50 34.375L50 15.625C50 6.99688 43.0031 1.93497e-06 34.375 2.31212e-06L15.625 3.13171e-06C6.99687 3.50885e-06 -1.87973e-06 6.99688 -1.50258e-06 15.625ZM34.375 4.6875C40.4062 4.6875 45.3125 9.59375 45.3125 15.625L45.3125 34.375C45.3125 40.4062 40.4062 45.3125 34.375 45.3125L15.625 45.3125C9.59375 45.3125 4.6875 40.4063 4.6875 34.375L4.6875 15.625C4.6875 9.59375 9.59375 4.6875 15.625 4.6875L34.375 4.6875Z" fill="white"/>
<path d="M12.5 25C12.5 31.9031 18.0969 37.5 25 37.5C31.9031 37.5 37.5 31.9031 37.5 25C37.5 18.0969 31.9031 12.5 25 12.5C18.0969 12.5 12.5 18.0969 12.5 25ZM32.8125 25C32.8125 29.3062 29.3062 32.8125 25 32.8125C20.6906 32.8125 17.1875 29.3063 17.1875 25C17.1875 20.6938 20.6906 17.1875 25 17.1875C29.3062 17.1875 32.8125 20.6937 32.8125 25Z" fill="white"/>
<path d="M13.2281 11.5619C13.2281 10.642 12.4824 9.89629 11.5625 9.89629C10.6426 9.89629 9.89685 10.642 9.89685 11.5619C9.89685 12.4818 10.6426 13.2275 11.5625 13.2275C12.4824 13.2275 13.2281 12.4818 13.2281 11.5619Z" fill="white"/>
</svg>
