<svg width="170" height="150" viewBox="0 0 170 150" fill="none" xmlns="http://www.w3.org/2000/svg">
<g clip-path="url(#clip0_4_195)">
<path d="M85 90.0268C93.3683 90.0268 100.152 83.2991 100.152 75C100.152 66.701 93.3683 59.9733 85 59.9733C76.6317 59.9733 69.8478 66.701 69.8478 75C69.8478 83.2991 76.6317 90.0268 85 90.0268Z" fill="black"/>
<path d="M85 105.786C129.903 105.786 166.304 92.0029 166.304 74.9999C166.304 57.997 129.903 44.2134 85 44.2134C40.0968 44.2134 3.69565 57.997 3.69565 74.9999C3.69565 92.0029 40.0968 105.786 85 105.786Z" stroke="black"/>
<path d="M58.1155 90.3933C80.5671 128.959 110.804 153.33 125.652 144.829C140.5 136.327 134.336 98.1721 111.884 59.6067C89.4328 21.0413 59.1957 -3.33036 44.3478 5.17111C29.4999 13.6726 35.664 51.8278 58.1155 90.3933Z" stroke="black"/>
<path d="M58.1156 59.6067C35.664 98.1721 29.5 136.327 44.3478 144.829C59.1957 153.33 89.4329 128.959 111.884 90.3932C134.336 51.8278 140.5 13.6725 125.652 5.17106C110.804 -3.33042 80.5671 21.0412 58.1156 59.6067Z" stroke="black"/>
</g>
<defs>
<clipPath id="clip0_4_195">
<rect width="170" height="150" fill="white"/>
</clipPath>
</defs>
</svg>
