<svg width="150" height="150" viewBox="0 0 150 150" fill="none" xmlns="http://www.w3.org/2000/svg">
<g clip-path="url(#clip0_4_186)">
<path d="M0 0H150V150H0V0Z" fill="black"/>
<path d="M72.0234 55.5469H79.2187V67.9687H59.7656V123.234L59.25 123.375C58.5469 123.562 49.2891 123.562 47.2969 123.352L45.7031 123.211V67.9687H26.25V55.5469L32.4141 55.4766C35.7891 55.4297 44.4609 55.4297 51.6797 55.4766C58.8984 55.5234 68.0391 55.5469 72.0234 55.5469ZM126.937 117.375C124.078 120.398 121.008 122.086 115.898 123.469C113.672 124.078 113.297 124.102 108.281 124.078C103.266 124.055 102.867 124.055 100.43 123.422C94.125 121.805 89.0391 118.641 85.5703 114.164C84.5859 112.898 82.9687 110.273 82.9687 109.945C82.9687 109.852 83.2031 109.641 83.5078 109.5C83.8125 109.359 84.4453 108.961 84.9609 108.656C85.4766 108.352 86.4141 107.789 87.0469 107.461C87.6797 107.133 89.5078 106.055 91.1016 105.094C92.6953 104.133 94.1484 103.359 94.3125 103.359C94.4766 103.359 94.7812 103.687 95.0156 104.086C96.4219 106.453 99.7031 109.477 102.023 110.508C103.453 111.117 106.617 111.797 108.141 111.797C109.547 111.797 112.125 111.187 113.508 110.555C114.984 109.875 115.734 109.195 116.625 107.836C117.234 106.875 117.305 106.617 117.281 104.789C117.281 103.102 117.187 102.633 116.719 101.859C115.406 99.7031 113.625 98.5781 106.406 95.3906C98.9531 92.0859 95.6016 90.1172 92.8828 87.4688C90.8672 85.5 90.4688 84.9609 89.2031 82.5C87.5625 79.3359 87.3516 78.3047 87.3281 73.5937C87.3047 70.2891 87.375 69.2109 87.7266 68.0859C88.2187 66.3984 89.8125 63.1406 90.5391 62.3203C92.0391 60.5625 92.5781 60.0234 93.6328 59.1562C96.8203 56.5312 101.789 54.7969 106.547 54.6328C107.086 54.6328 108.867 54.7266 110.531 54.8437C115.312 55.2422 118.57 56.4141 121.711 58.9219C124.078 60.7969 127.664 65.2031 127.312 65.7891C127.078 66.1406 117.727 72.375 117.117 72.5625C116.742 72.6797 116.484 72.5391 115.969 71.9297C112.781 68.1094 111.492 67.2891 108.398 67.1016C106.195 66.9609 105.023 67.2187 103.547 68.2031C102 69.2344 101.25 70.8047 101.25 72.9844C101.273 76.1719 102.492 77.6719 106.992 79.8984C109.898 81.3281 112.383 82.5 112.57 82.5C112.852 82.5 118.875 85.5 120.445 86.4375C127.758 90.7266 130.734 95.1328 131.508 102.727C132.07 108.445 130.453 113.672 126.937 117.375Z" fill="white"/>
</g>
<defs>
<clipPath id="clip0_4_186">
<rect width="150" height="150" fill="white"/>
</clipPath>
</defs>
</svg>
